<svg xmlns="http://www.w3.org/2000/svg" viewBox="0 0 475.07 590.16">
  <defs>
    <style>.a{fill:#fff;}</style>
  </defs>
  <path class="a" d="M263.63,498a2.23,2.23,0,0,0,0,3.92l58.86,31.71a311.89,311.89,0,0,1,69.8,51.26h0a311.27,311.27,0,0,1,78.48,125.89l27.11,82.73a2.22,2.22,0,0,0,4.22,0l27.11-82.73A311.27,311.27,0,0,1,607.7,584.93h0a311.89,311.89,0,0,1,69.8-51.26L736.37,502a2.23,2.23,0,0,0,0-3.92L677.5,466.33a311.89,311.89,0,0,1-69.8-51.26h0a311.27,311.27,0,0,1-78.48-125.89l-27.11-82.73a2.22,2.22,0,0,0-4.22,0l-27.11,82.73A311.27,311.27,0,0,1,392.3,415.07h0a311.89,311.89,0,0,1-69.8,51.26Z" transform="translate(-262.46 -204.92)" />
</svg>
